<?xml version="1.0" standalone="no"?>
<!DOCTYPE svg PUBLIC "-//W3C//DTD SVG 20010904//EN"
 "http://www.w3.org/TR/2001/REC-SVG-20010904/DTD/svg10.dtd">
<svg version="1.0" xmlns="http://www.w3.org/2000/svg"
 width="2048.000000pt" height="2048.000000pt" viewBox="0 0 2048.000000 2048.000000"
 preserveAspectRatio="xMidYMid meet">

<g transform="translate(0.000000,2048.000000) scale(0.100000,-0.100000)"
fill="#000000" stroke="none">
<path d="M11362 13788 c-24 -30 -43 -102 -62 -236 -26 -185 -25 -256 5 -372
27 -106 29 -135 15 -224 -13 -83 -35 -242 -65 -476 -14 -107 -34 -258 -44
-335 -11 -77 -31 -232 -46 -345 -31 -251 -42 -334 -56 -425 -6 -38 -14 -104
-19 -145 -5 -41 -16 -129 -25 -195 -9 -66 -27 -205 -40 -310 -13 -104 -30
-237 -39 -295 -8 -58 -19 -145 -25 -195 -7 -49 -25 -198 -43 -330 -17 -132
-34 -278 -38 -325 -39 -447 -64 -561 -183 -845 -14 -33 -30 -82 -36 -110 -15
-66 -34 -406 -24 -416 11 -10 423 -104 568 -129 145 -25 330 -36 366 -22 38
15 88 127 124 277 8 33 24 98 35 145 11 47 27 119 35 160 9 41 20 93 25 115
29 130 82 479 94 615 4 50 -6 102 -21 107 -6 2 -20 -11 -32 -30 -24 -40 -95
-215 -124 -307 -11 -36 -23 -69 -27 -75 -4 -5 -10 -22 -13 -36 -17 -71 -109
-189 -163 -209 -38 -15 -101 -12 -155 7 -87 31 -91 60 -59 458 18 233 36 406
60 586 6 41 19 146 30 234 30 249 70 543 83 620 l12 70 145 0 144 0 7 -30 c3
-16 12 -61 18 -100 28 -170 52 -240 82 -240 7 0 20 13 27 28 47 98 178 993
183 1252 3 158 1 175 -21 175 -13 0 -24 -10 -31 -27 -6 -16 -16 -35 -24 -43
-7 -8 -32 -64 -55 -125 -43 -108 -63 -140 -86 -131 -6 2 -63 12 -125 21 -67 9
-118 22 -125 30 -11 15 -7 66 27 365 80 711 218 1130 373 1130 60 0 107 -23
152 -74 61 -70 71 -107 103 -393 11 -92 23 -123 50 -123 32 0 72 80 112 228
45 166 135 621 149 755 18 161 -2 254 -56 275 -74 27 -1140 46 -1162 20z"/>
<path d="M6105 13691 c-88 -22 -166 -87 -240 -201 -40 -62 -115 -218 -129
-270 -4 -14 -11 -34 -16 -45 -12 -26 -57 -200 -75 -290 -24 -125 -48 -352 -60
-570 -3 -60 -10 -164 -16 -230 -6 -66 -9 -142 -7 -170 l3 -50 16 30 c8 17 44
84 78 150 35 66 80 140 100 165 21 25 43 56 50 68 7 13 41 61 75 105 97 126
196 266 196 276 0 5 4 11 8 13 8 3 183 262 191 282 2 6 40 64 84 131 116 174
131 211 131 316 0 73 -4 93 -27 142 -33 67 -79 107 -154 136 -56 21 -147 27
-208 12z"/>
<path d="M3092 13665 c-159 -35 -318 -155 -380 -289 -65 -138 -80 -273 -38
-361 30 -65 129 -155 220 -201 71 -36 177 -75 336 -125 52 -16 138 -43 190
-59 52 -16 115 -35 140 -41 44 -10 159 -46 375 -116 200 -64 446 -185 638
-312 133 -89 198 -143 332 -276 102 -102 128 -131 179 -198 38 -52 45 -39 9
15 -17 24 -43 68 -60 98 -205 377 -512 856 -700 1095 -73 94 -318 354 -383
408 -25 20 -63 53 -85 72 -22 20 -58 48 -80 63 -22 15 -60 42 -85 60 -24 19
-98 60 -165 92 -175 86 -298 106 -443 75z"/>
<path d="M6622 12489 c-56 -33 -123 -108 -147 -165 -7 -18 -21 -67 -31 -110
-46 -209 24 -623 119 -706 15 -14 38 -18 89 -18 39 0 68 4 68 10 0 6 7 10 15
10 17 0 70 69 92 120 30 71 62 213 74 326 27 269 -18 451 -133 534 -52 38 -79
37 -146 -1z"/>
<path d="M9712 11900 c-167 -35 -305 -180 -371 -390 -68 -220 -85 -555 -33
-657 27 -52 55 -69 88 -54 29 13 89 104 114 174 66 181 90 238 120 279 58 78
99 81 121 10 14 -45 24 -510 12 -565 -8 -36 -12 -39 -89 -70 -128 -52 -244
-144 -337 -267 -87 -115 -152 -301 -175 -500 -63 -537 -22 -1167 90 -1410 29
-61 68 -103 112 -120 52 -19 132 8 184 63 23 25 72 139 72 169 0 41 18 14 24
-36 9 -79 37 -156 62 -172 12 -8 68 -26 124 -40 89 -23 108 -25 142 -15 51 16
61 40 83 205 18 130 16 225 -4 351 -39 237 -35 747 9 1050 43 298 60 541 67
930 7 413 -13 665 -68 855 -35 122 -66 170 -127 195 -43 18 -165 26 -220 15z
m-14 -1895 c11 -308 -51 -825 -113 -945 -55 -107 -107 -70 -119 85 -8 108 17
463 36 515 3 8 11 49 18 90 31 188 107 365 154 358 20 -3 21 -10 24 -103z"/>
<path d="M12458 11849 c-84 -12 -93 -20 -106 -86 -34 -171 -44 -246 -42 -323
5 -345 -3 -1673 -11 -1707 -5 -23 -22 -72 -39 -108 -16 -36 -30 -68 -30 -71 0
-3 -9 -24 -19 -47 -10 -23 -45 -105 -76 -182 -124 -305 -229 -566 -276 -685
-27 -69 -54 -134 -59 -145 -36 -78 -42 -110 -51 -260 -6 -98 -7 -167 -1 -180
8 -17 29 -23 131 -39 67 -10 124 -16 127 -13 10 10 84 234 93 282 6 31 6 138
-1 283 l-10 234 26 54 c14 30 26 58 26 62 0 8 45 119 84 207 15 33 32 72 39
88 28 65 32 25 29 -325 -2 -268 -6 -359 -16 -378 -8 -14 -24 -45 -38 -70 -55
-102 -67 -147 -79 -295 -7 -80 -10 -147 -8 -149 9 -9 445 -87 469 -84 23 3 27
12 66 169 l41 165 21 565 c12 310 24 610 27 665 3 56 10 225 15 376 l9 274
102 210 c55 115 112 234 126 264 14 30 47 100 73 155 114 238 160 336 160 341
0 3 12 31 26 62 39 86 80 192 92 242 20 79 32 242 22 290 -5 25 -9 48 -10 52
-1 29 -176 40 -263 17 -45 -12 -47 -17 -76 -164 -35 -174 -42 -261 -29 -332 9
-52 8 -77 -6 -150 -20 -100 -53 -230 -67 -255 -5 -10 -9 -26 -10 -35 0 -10
-19 -65 -43 -123 -42 -107 -67 -134 -80 -88 -9 37 -7 573 3 584 13 12 58 123
88 214 25 77 43 270 29 323 -21 87 -121 128 -305 126 -64 -1 -142 -5 -173 -10z"/>
<path d="M17685 11766 c-36 -10 -45 -21 -89 -96 -27 -47 -64 -113 -81 -147
-18 -34 -42 -75 -54 -91 -11 -16 -25 -40 -31 -53 -6 -13 -16 -33 -23 -44 -7
-11 -31 -54 -55 -95 -24 -41 -51 -87 -60 -102 -9 -14 -32 -52 -50 -83 -53 -91
-114 -143 -243 -209 -65 -34 -122 -57 -130 -54 -12 5 -17 28 -22 95 -7 104
-12 122 -42 133 -59 22 -172 -42 -262 -149 -77 -92 -79 -95 -86 -114 -3 -9
-11 -17 -17 -17 -5 0 -10 -6 -10 -13 0 -7 -9 -23 -20 -35 -11 -12 -20 -26 -20
-32 0 -5 -5 -10 -11 -10 -6 0 -8 8 -5 18 8 24 36 129 47 172 4 19 11 76 14
125 11 162 -32 198 -187 156 -96 -25 -159 -56 -240 -116 -105 -77 -141 -137
-188 -315 -28 -109 -30 -122 -24 -245 5 -110 3 -146 -15 -235 -34 -165 -122
-441 -246 -775 -15 -38 -48 -133 -75 -210 -43 -126 -132 -378 -180 -510 -73
-203 -160 -395 -180 -395 -8 0 -92 -104 -117 -145 -61 -99 -121 -254 -130
-336 -8 -81 -6 -81 262 -88 257 -7 233 -17 302 121 91 181 107 232 123 397 13
131 13 132 162 501 28 69 61 157 75 195 14 39 29 75 33 80 5 6 18 39 30 75 12
36 30 83 40 105 11 22 38 90 60 150 23 61 50 129 61 152 10 24 19 47 19 53 0
6 4 18 9 28 11 20 26 55 74 173 46 111 106 219 125 227 11 4 25 -6 41 -27 97
-125 127 -131 199 -40 49 63 155 221 207 308 17 28 35 51 40 51 6 0 25 -9 43
-20 22 -14 32 -27 32 -44 0 -20 -106 -301 -155 -411 -8 -16 -33 -77 -56 -135
-22 -58 -61 -154 -86 -215 -25 -60 -62 -153 -83 -205 -102 -255 -191 -472
-221 -537 -10 -24 -19 -45 -19 -49 0 -8 -127 -327 -155 -389 -12 -27 -26 -61
-30 -75 -4 -14 -27 -72 -50 -130 -54 -135 -68 -187 -69 -261 -2 -92 -2 -91
239 -87 183 3 202 5 221 23 12 11 41 38 64 60 86 81 140 178 164 297 28 135
24 157 -39 206 -14 11 -30 39 -37 65 -10 38 -9 52 4 84 56 138 87 210 130 301
26 57 48 105 48 106 0 2 21 48 46 102 25 55 51 113 59 129 7 17 33 73 57 125
25 52 62 133 84 180 21 47 42 87 46 88 5 2 8 10 8 18 0 8 4 22 10 32 10 18 69
143 182 387 86 185 87 186 136 170 45 -16 109 -11 132 10 24 22 120 166 163
245 42 75 67 164 67 233 0 84 -35 127 -105 127 -25 0 -45 4 -45 8 0 5 14 37
31 73 55 111 169 360 215 469 25 58 53 123 63 145 70 155 81 286 27 331 -31
27 -84 31 -151 10z"/>
<path d="M8830 11700 c-189 -25 -340 -54 -487 -92 -52 -13 -55 -20 -77 -233
-36 -349 -46 -613 -25 -674 31 -88 84 5 150 259 18 69 38 145 44 170 13 49 21
53 140 85 57 15 69 11 62 -19 -3 -11 -17 -75 -32 -141 -15 -66 -31 -136 -35
-155 -5 -19 -18 -78 -29 -130 -11 -52 -45 -210 -76 -350 -104 -484 -186 -884
-219 -1085 -40 -233 -40 -236 -28 -495 6 -138 16 -259 22 -269 8 -15 24 -20
72 -23 35 -2 190 -19 345 -38 156 -18 285 -31 288 -28 6 6 34 253 65 573 23
245 27 467 7 483 -7 6 -18 8 -23 4 -36 -23 -111 -247 -156 -462 -6 -30 -15
-60 -19 -65 -5 -8 -38 -8 -106 0 -96 10 -98 10 -95 35 3 21 22 107 87 390 17
71 78 332 103 435 11 44 34 143 52 220 17 77 36 154 40 170 5 17 18 71 30 120
11 50 33 146 49 215 16 69 44 186 61 260 17 74 40 171 51 215 37 148 53 595
22 626 -19 19 -140 19 -283 -1z"/>
<path d="M13745 11654 c-103 -70 -208 -199 -279 -344 l-37 -75 1 -205 c0 -211
-4 -253 -45 -425 -13 -55 -40 -167 -60 -250 -46 -197 -139 -589 -175 -740 -16
-66 -43 -181 -60 -255 -17 -74 -44 -189 -60 -255 -16 -66 -40 -167 -54 -225
-13 -58 -38 -161 -55 -230 -17 -69 -38 -159 -47 -200 -28 -128 -31 -140 -82
-345 -27 -110 -69 -281 -92 -380 -58 -242 -104 -409 -129 -470 -11 -27 -50
-126 -86 -220 -36 -93 -76 -190 -88 -214 -19 -38 -22 -61 -22 -157 0 -103 2
-114 23 -137 12 -13 39 -29 60 -34 50 -14 246 -17 270 -4 16 8 92 122 92 136
0 3 11 28 24 57 49 110 51 123 49 328 -2 178 0 204 23 300 28 119 42 174 55
210 5 14 13 43 18 65 9 43 69 270 96 370 9 33 34 125 55 205 21 80 48 181 60
225 21 77 51 192 90 340 10 39 30 115 45 170 15 55 36 134 47 175 73 284 175
662 189 700 5 14 22 79 40 145 42 166 136 498 161 570 68 202 155 381 203 424
42 36 49 37 75 11 56 -56 1 -371 -206 -1195 -42 -165 -77 -302 -79 -305 -2 -3
-26 -87 -54 -185 -123 -445 -184 -574 -325 -685 l-64 -50 -36 -113 c-81 -254
-105 -436 -70 -550 12 -38 26 -65 42 -75 22 -14 27 -14 59 3 72 39 243 234
307 350 9 17 22 39 28 50 54 89 76 129 146 270 44 88 92 189 107 225 15 36 35
83 45 105 17 39 77 191 107 270 9 22 19 49 24 60 4 11 36 101 69 200 89 263
148 459 226 752 45 171 89 415 125 693 18 142 20 198 16 400 -6 256 -17 325
-75 440 -22 45 -34 58 -66 69 -35 13 -44 13 -87 -2 -71 -26 -143 -78 -245
-178 -50 -49 -94 -89 -97 -89 -4 0 -7 42 -7 94 0 111 -15 155 -63 185 -46 28
-86 26 -132 -5z"/>
<path d="M3335 11644 c-98 -14 -188 -49 -222 -86 -33 -35 -55 -95 -48 -129 8
-37 86 -123 139 -153 102 -60 338 -121 556 -145 264 -29 1081 -53 1050 -31
-35 25 -667 333 -795 388 -160 68 -302 118 -393 138 -68 14 -238 25 -287 18z"/>
<path d="M7670 11534 c-39 -11 -68 -27 -99 -57 -48 -47 -131 -155 -177 -232
-221 -370 -298 -1074 -188 -1725 54 -321 158 -656 252 -808 17 -29 32 -54 32
-57 0 -3 8 -13 18 -23 9 -10 31 -33 47 -53 37 -42 91 -69 139 -69 47 0 150 50
202 98 152 140 229 401 222 752 -5 229 -16 222 -150 -90 -28 -64 -88 -161
-117 -190 -33 -31 -93 -34 -116 -5 -50 63 -82 166 -110 364 -21 148 -22 145
30 181 74 51 218 200 260 270 21 36 41 67 44 70 18 15 92 222 121 335 19 73
25 428 10 545 -23 178 -89 423 -147 546 -32 68 -94 129 -151 148 -54 19 -52
19 -122 0z m50 -517 c48 -37 90 -263 75 -402 -3 -33 -8 -86 -10 -118 -9 -113
-57 -249 -108 -305 -30 -32 -80 -54 -114 -50 -41 5 -56 55 -61 218 -8 228 25
436 89 562 49 96 90 127 129 95z"/>
<path d="M15303 11414 c-22 -5 -91 -67 -148 -134 -75 -87 -169 -231 -319 -490
-29 -50 -238 -468 -273 -546 -12 -27 -36 -83 -53 -124 -17 -41 -35 -84 -40
-95 -5 -11 -25 -63 -45 -115 -20 -52 -41 -106 -47 -120 -5 -14 -16 -45 -24
-70 -8 -25 -19 -54 -24 -65 -27 -61 -123 -397 -156 -545 -25 -109 -62 -329
-74 -435 -6 -55 -15 -138 -20 -185 -21 -174 -28 -431 -15 -541 20 -175 63
-236 174 -246 64 -6 98 6 166 62 150 123 407 427 534 633 107 174 135 256 148
435 6 84 5 87 -15 87 -22 0 -67 -56 -182 -225 -66 -96 -58 -85 -122 -165 -131
-165 -222 -218 -264 -155 -25 38 -44 130 -44 211 0 99 34 310 65 405 14 41 21
48 68 68 215 94 375 206 550 384 153 156 304 376 366 535 11 27 29 69 39 93
43 95 103 304 131 459 12 63 26 139 32 169 6 30 11 127 11 215 1 137 -3 173
-22 241 -12 44 -27 89 -32 100 -21 41 -82 107 -122 133 -35 22 -53 26 -131 28
-49 1 -100 0 -112 -2z m11 -651 c20 -124 -14 -403 -64 -528 -26 -64 -115 -235
-122 -235 -4 0 -8 -5 -8 -11 0 -17 -103 -135 -169 -195 -69 -62 -148 -117
-154 -107 -4 7 15 82 33 128 4 11 19 52 33 90 51 145 180 482 203 533 13 29
24 55 24 58 0 18 125 256 151 287 24 30 34 35 48 27 10 -5 21 -26 25 -47z"/>
<path d="M6795 11220 c-128 -67 -246 -183 -301 -296 -27 -55 -27 -58 -15 -132
7 -41 16 -82 20 -91 4 -9 31 -62 60 -119 57 -112 58 -118 81 -397 5 -66 14
-169 20 -230 17 -171 27 -297 50 -605 19 -250 21 -298 10 -396 -16 -137 -10
-250 15 -287 24 -37 62 -52 175 -72 120 -21 207 -16 231 14 33 41 43 239 15
322 -64 194 -113 617 -131 1139 -10 271 -41 769 -55 885 -38 300 -56 328 -175
265z"/>
<path d="M5974 10929 c-108 -69 -176 -146 -200 -226 -8 -29 -19 -53 -23 -53
-4 0 -16 16 -27 36 -10 19 -33 44 -51 55 -31 20 -33 20 -72 2 -69 -31 -221
-222 -261 -328 -6 -15 -11 -53 -11 -85 -1 -62 27 -132 60 -149 31 -17 52 -59
61 -124 6 -34 14 -84 20 -112 9 -46 59 -352 95 -585 8 -52 33 -205 54 -340 22
-135 45 -283 51 -330 12 -97 25 -183 42 -290 7 -43 11 -131 9 -205 -8 -302 -8
-312 19 -340 34 -36 102 -53 245 -61 l124 -7 31 33 c28 30 30 38 30 105 0 41
-4 76 -10 80 -14 8 -78 149 -100 219 -11 36 -25 134 -34 236 -18 201 -52 512
-95 856 -16 132 -32 266 -35 299 -12 115 -46 411 -56 485 -22 165 -11 257 38
313 30 34 92 13 120 -40 79 -147 182 -850 169 -1158 -5 -115 -8 -136 -30 -176
-40 -71 -60 -155 -60 -249 0 -107 15 -162 56 -206 29 -31 38 -34 88 -35 57 -2
135 25 172 58 58 53 135 350 156 606 45 527 -46 1125 -230 1514 -47 99 -121
187 -186 222 -41 21 -105 13 -159 -20z"/>
<path d="M18074 10501 c-77 -10 -182 -58 -249 -115 -109 -94 -230 -328 -235
-457 -5 -115 -2 -129 35 -166 41 -41 67 -41 137 3 40 25 177 134 223 177 70
66 158 104 176 76 30 -48 -10 -173 -136 -424 l-40 -79 -120 -2 c-88 -1 -140
-7 -195 -22 -109 -31 -150 -46 -150 -54 0 -5 -6 -8 -12 -8 -47 0 -272 -180
-356 -284 -108 -136 -135 -182 -193 -341 -30 -79 -35 -92 -82 -195 -26 -58
-120 -287 -156 -380 -69 -180 -96 -336 -68 -402 24 -57 57 -73 152 -72 73 1
87 5 168 44 48 24 117 68 153 99 108 91 115 92 90 20 -28 -80 -30 -79 93 -79
234 0 393 71 437 195 21 61 54 195 54 222 0 13 21 58 46 101 25 42 49 84 53
92 24 46 75 136 81 145 4 6 55 96 113 200 57 105 134 242 169 305 36 63 95
176 132 250 37 74 71 140 76 145 9 12 123 268 138 310 26 74 36 149 36 265 0
118 -2 129 -31 191 -57 124 -136 186 -278 219 -101 23 -183 30 -261 21z m-318
-1412 c6 -11 -9 -50 -32 -79 -6 -8 -27 -44 -46 -80 -20 -36 -59 -102 -87 -148
-28 -46 -51 -86 -51 -88 0 -3 -35 -58 -77 -122 -79 -120 -164 -233 -201 -265
-26 -24 -56 -18 -60 11 -8 52 99 316 169 420 16 23 29 45 29 47 0 24 133 179
200 232 30 24 60 48 67 53 7 6 19 10 27 10 8 0 18 5 21 10 8 13 32 13 41 -1z"/>
<path d="M4855 10406 c-76 -34 -157 -173 -216 -368 -11 -38 -24 -68 -28 -68
-5 0 -26 23 -47 51 -68 89 -167 128 -240 93 -35 -17 -116 -113 -134 -159 -4
-11 -17 -41 -28 -65 -12 -25 -28 -69 -38 -97 -9 -29 -21 -53 -28 -53 -6 0 -27
23 -46 51 -49 70 -67 89 -88 89 -29 0 -79 -56 -163 -183 -83 -125 -101 -175
-102 -286 0 -68 14 -99 51 -106 76 -16 71 -8 119 -180 25 -88 48 -176 53 -195
10 -41 33 -123 66 -239 20 -71 24 -105 24 -226 0 -198 1 -202 59 -211 61 -10
255 18 319 46 85 37 93 97 30 231 -19 41 -46 117 -61 169 -43 154 -109 412
-118 455 -4 22 -17 83 -29 135 -14 60 -23 132 -24 197 -1 98 0 104 26 129 22
22 32 26 61 20 21 -4 38 -14 41 -24 17 -52 157 -602 166 -652 5 -25 18 -88 29
-140 12 -52 26 -150 32 -218 11 -139 16 -156 55 -195 27 -28 32 -29 99 -24
145 11 241 43 267 90 18 33 13 128 -11 196 -19 55 -33 111 -77 311 -19 81 -31
142 -83 400 -22 113 -45 225 -51 250 -15 71 -22 182 -12 214 12 44 52 70 95
62 19 -4 38 -14 42 -24 6 -15 61 -292 84 -422 14 -76 41 -213 50 -250 18 -73
53 -320 61 -430 10 -130 22 -185 52 -249 l21 -44 101 7 c125 8 263 34 282 53
26 27 17 105 -26 212 -35 88 -51 150 -91 341 -25 119 -68 409 -100 680 -15
127 -54 322 -72 357 -8 15 -17 41 -21 57 -17 71 -90 163 -156 197 -54 28 -151
36 -195 15z"/>
<path d="M3182 10079 c-59 -29 -118 -99 -163 -194 -36 -75 -39 -86 -40 -175
-2 -138 17 -196 74 -230 43 -26 92 -25 172 4 80 29 104 50 143 124 44 83 62
155 62 247 0 132 -36 201 -117 229 -61 21 -80 20 -131 -5z"/>
<path d="M3262 9328 c-159 -180 -162 -184 -162 -229 0 -103 36 -148 118 -149
33 0 54 -5 57 -12 44 -145 121 -383 132 -413 32 -83 44 -155 52 -294 8 -161
13 -171 82 -171 82 0 265 53 331 96 88 56 86 119 -6 279 -36 63 -210 615 -255
810 -40 170 -52 204 -88 235 -23 20 -44 30 -66 30 -30 0 -47 -16 -195 -182z"/>
<path d="M2404 9288 c-16 -18 -51 -58 -79 -89 -27 -31 -70 -80 -95 -109 -25
-30 -80 -94 -124 -144 -86 -98 -126 -170 -126 -228 0 -45 24 -62 78 -54 20 4
42 3 47 -1 16 -12 56 -76 135 -213 40 -69 77 -132 84 -140 7 -8 25 -40 40 -70
16 -30 35 -62 42 -70 14 -17 108 -214 131 -275 8 -22 19 -71 23 -109 12 -104
36 -116 142 -67 35 15 86 39 113 51 28 13 102 47 165 77 63 30 140 66 170 80
153 69 238 114 244 129 22 56 -12 251 -59 345 -26 50 -55 79 -82 79 -47 0 -56
-23 -70 -173 -13 -138 -14 -142 -45 -174 -32 -33 -135 -73 -186 -73 -21 0 -33
20 -109 190 -14 30 -38 83 -54 117 -16 34 -29 64 -29 67 0 3 -14 36 -31 73
-89 194 -174 421 -203 543 -9 38 -15 98 -13 146 2 68 -1 85 -17 103 -27 30
-58 26 -92 -11z"/>
</g>
</svg>
